<?xml version="1.0" encoding="utf-8"?>
<!-- Generator: Adobe Illustrator 27.7.0, SVG Export Plug-In . SVG Version: 6.00 Build 0)  -->
<svg version="1.1" xmlns="http://www.w3.org/2000/svg" xmlns:xlink="http://www.w3.org/1999/xlink" x="0px" y="0px"
	 viewBox="0 0 100 125" style="enable-background:new 0 0 100 125;" xml:space="preserve">
<g id="Layer_2">
</g>
<g id="Layer_1">
	<path d="M79.2,42.5c-1.6,0-3.2,0.2-4.7,0.6l-8-20.9c-0.3-0.7-1-1.2-1.8-1.2h-6.3c-1,0-1.9,0.8-1.9,1.9s0.8,1.9,1.9,1.9h5l3.5,9.1
		H39.3l-0.8-2.1c1.9-0.3,3.6-0.6,3.9-0.7c0.8-0.1,1.6-0.7,1.6-1.6v-0.9c0-0.4-0.3-0.7-0.7-0.7H31c-0.7,0-1.2,0.5-1.2,1.2
		c0,0-0.2,4.2,1.6,3.9c0.6-0.1,1.8-0.3,3.3-0.6l1.2,3.1l-6.4,9.2c-2.6-1.4-5.6-2.2-8.8-2.2c-10.1,0-18.3,8.2-18.3,18.3
		s8.2,18.3,18.3,18.3c9.4,0,17.2-7.2,18.2-16.4h8.9c0.6,0,1.1-0.2,1.4-0.7l19.6-22.9l2.1,5.4c-5.9,3-10,9.2-10,16.3
		c0,10.1,8.2,18.3,18.3,18.3s18.3-8.2,18.3-18.3C97.5,50.7,89.3,42.5,79.2,42.5z M20.8,75.3c-8,0-14.5-6.5-14.5-14.5
		s6.5-14.5,14.5-14.5c2.4,0,4.6,0.6,6.6,1.6l-8.2,11.8c-0.4,0.6-0.4,1.3-0.1,2c0.3,0.6,1,1,1.7,1h14.4
		C34.2,69.8,28.1,75.3,20.8,75.3z M24.4,58.9l6.1-8.9c2.5,2.3,4.2,5.4,4.7,8.9H24.4z M39,58.9c-0.5-4.8-2.8-9-6.3-12l4.9-7.1
		l7.5,19.1H39z M48.5,57.1l-7.7-19.5h24.3L48.5,57.1z M79.2,75.3c-8,0-14.5-6.5-14.5-14.5c0-5.5,3.1-10.3,7.6-12.7l5.1,13.4
		c0.3,0.8,1,1.2,1.8,1.2c0.2,0,0.5,0,0.7-0.1c1-0.4,1.5-1.5,1.1-2.4l-5.1-13.4c1.1-0.3,2.2-0.4,3.4-0.4c8,0,14.5,6.5,14.5,14.5
		S87.2,75.3,79.2,75.3z"/>
</g>
</svg>
